<?xml version="1.0" encoding="utf-8"?>
<!-- Generator: Adobe Illustrator 19.2.1, SVG Export Plug-In . SVG Version: 6.00 Build 0)  -->
<svg version="1.1" id="Ebene_1" xmlns="http://www.w3.org/2000/svg" xmlns:xlink="http://www.w3.org/1999/xlink" x="0px" y="0px"
	 viewBox="0 0 92.9 92.9" style="enable-background:new 0 0 92.9 92.9;" xml:space="preserve">
<style type="text/css">
	.st0{fill:#A6450E;}
</style>
<path class="st0" d="M69.3,64.6l-5.1-2.8c3.6-4.1,5.7-9.5,5.7-15.4c0-13-10.5-23.5-23.5-23.5S22.9,33.4,22.9,46.4S33.4,70,46.4,70
	c5.7,0,11-2.1,15.1-5.5l2.8,5l22.1,22l4.7-4.7L69.3,64.6z M46.4,63.2c-9.3,0-16.8-7.5-16.8-16.8c0-9.3,7.5-16.8,16.8-16.8
	s16.8,7.5,16.8,16.8C63.2,55.7,55.7,63.2,46.4,63.2z"/>
</svg>
